<svg xmlns="http://www.w3.org/2000/svg" xmlns:xlink="http://www.w3.org/1999/xlink" width="167" zoomAndPan="magnify" viewBox="0 0 125.25 125.249998" height="167" preserveAspectRatio="xMidYMid meet" version="1.0"><defs><g/><clipPath id="794f36fabf"><path d="M 62.253906 63.820312 L 87.800781 63.820312 L 87.800781 69.8125 L 62.253906 69.8125 Z M 62.253906 63.820312 " clip-rule="nonzero"/></clipPath><clipPath id="eaa214bf79"><path d="M 62.257812 11.011719 L 87.800781 11.011719 L 87.800781 17.863281 L 62.257812 17.863281 Z M 62.257812 11.011719 " clip-rule="nonzero"/></clipPath><clipPath id="de0385df94"><path d="M 70.972656 74.296875 L 77.8125 74.296875 L 77.8125 107.949219 L 70.972656 107.949219 Z M 70.972656 74.296875 " clip-rule="nonzero"/></clipPath></defs><g fill="#000000" fill-opacity="1"><g transform="translate(17.097427, 54.678752)"><g><path d="M 5.453125 0 L 5.453125 -43.375 L 12.390625 -43.375 L 12.390625 -24.65625 L 30.0625 -43.375 L 38.671875 -43.375 L 38.671875 -43.125 L 18.78125 -22.4375 L 40.40625 -0.4375 L 40.40625 0 L 31.734375 0 L 12.390625 -19.765625 L 12.390625 0 Z M 5.453125 0 "/></g></g></g><g fill="#000000" fill-opacity="1"><g transform="translate(57.255767, 54.678752)"><g><path d="M 9.234375 -37.25 L 9.234375 -42.578125 L 27.078125 -42.578125 L 27.078125 -37.25 Z M 18.15625 0.6875 C 14.976562 0.6875 12.203125 -0.00390625 9.828125 -1.390625 C 7.453125 -2.773438 5.625 -4.675781 4.34375 -7.09375 C 3.0625 -9.507812 2.421875 -12.226562 2.421875 -15.25 C 2.421875 -18.21875 3.070312 -20.910156 4.375 -23.328125 C 5.675781 -25.742188 7.515625 -27.65625 9.890625 -29.0625 C 12.265625 -30.46875 15.019531 -31.171875 18.15625 -31.171875 C 21.289062 -31.171875 24.046875 -30.46875 26.421875 -29.0625 C 28.804688 -27.65625 30.664062 -25.742188 32 -23.328125 C 33.34375 -20.910156 34.015625 -18.21875 34.015625 -15.25 C 34.015625 -12.226562 33.363281 -9.507812 32.0625 -7.09375 C 30.757812 -4.675781 28.921875 -2.773438 26.546875 -1.390625 C 24.171875 -0.00390625 21.375 0.6875 18.15625 0.6875 Z M 18.15625 -5.265625 C 20.132812 -5.265625 21.828125 -5.71875 23.234375 -6.625 C 24.640625 -7.539062 25.710938 -8.75 26.453125 -10.25 C 27.203125 -11.757812 27.578125 -13.425781 27.578125 -15.25 C 27.578125 -17.0625 27.179688 -18.722656 26.390625 -20.234375 C 25.609375 -21.742188 24.515625 -22.960938 23.109375 -23.890625 C 21.703125 -24.816406 20.050781 -25.28125 18.15625 -25.28125 C 16.257812 -25.28125 14.609375 -24.816406 13.203125 -23.890625 C 11.796875 -22.960938 10.707031 -21.742188 9.9375 -20.234375 C 9.175781 -18.722656 8.796875 -17.0625 8.796875 -15.25 C 8.796875 -13.425781 9.175781 -11.757812 9.9375 -10.25 C 10.707031 -8.75 11.796875 -7.539062 13.203125 -6.625 C 14.609375 -5.71875 16.257812 -5.265625 18.15625 -5.265625 Z M 18.15625 -5.265625 "/></g></g></g><g fill="#000000" fill-opacity="1"><g transform="translate(17.097427, 108.35732)"><g><path d="M 5.453125 0 L 5.453125 -43.375 L 12.390625 -43.375 L 12.390625 -24.484375 L 35.328125 -24.484375 L 35.328125 -43.375 L 42.203125 -43.375 L 42.203125 0 L 35.328125 0 L 35.328125 -18.03125 L 12.390625 -18.03125 L 12.390625 0 Z M 5.453125 0 "/></g></g></g><g clip-path="url(#794f36fabf)"><path fill="#000000" d="M 62.253906 63.820312 L 87.804688 63.820312 L 87.804688 69.8125 L 62.253906 69.8125 Z M 62.253906 63.820312 " fill-opacity="1" fill-rule="nonzero"/></g><g clip-path="url(#eaa214bf79)"><path fill="#000000" d="M 62.257812 11.011719 L 87.789062 11.011719 L 87.789062 17.863281 L 62.257812 17.863281 Z M 62.257812 11.011719 " fill-opacity="1" fill-rule="nonzero"/></g><g clip-path="url(#de0385df94)"><path fill="#000000" d="M 70.972656 107.949219 L 70.972656 74.292969 L 77.8125 74.292969 L 77.8125 107.949219 Z M 70.972656 107.949219 " fill-opacity="1" fill-rule="nonzero"/></g><g fill="#000000" fill-opacity="1"><g transform="translate(93.005707, 23.834362)"><g><path d="M 4.109375 0.109375 C 3.421875 0.109375 2.8125 -0.03125 2.28125 -0.3125 C 1.75 -0.601562 1.332031 -1.039062 1.03125 -1.625 C 0.738281 -2.207031 0.59375 -2.921875 0.59375 -3.765625 C 0.59375 -4.609375 0.738281 -5.316406 1.03125 -5.890625 C 1.332031 -6.472656 1.75 -6.910156 2.28125 -7.203125 C 2.8125 -7.492188 3.421875 -7.640625 4.109375 -7.640625 C 4.835938 -7.640625 5.453125 -7.492188 5.953125 -7.203125 C 6.460938 -6.921875 6.828125 -6.492188 7.046875 -5.921875 L 5.953125 -5.25 L 5.828125 -5.265625 C 5.671875 -5.648438 5.453125 -5.925781 5.171875 -6.09375 C 4.898438 -6.269531 4.546875 -6.359375 4.109375 -6.359375 C 3.484375 -6.359375 2.992188 -6.148438 2.640625 -5.734375 C 2.296875 -5.316406 2.125 -4.660156 2.125 -3.765625 C 2.125 -2.867188 2.296875 -2.210938 2.640625 -1.796875 C 2.992188 -1.378906 3.484375 -1.171875 4.109375 -1.171875 C 5.085938 -1.171875 5.6875 -1.648438 5.90625 -2.609375 L 6.046875 -2.609375 L 7.140625 -2.03125 C 6.929688 -1.320312 6.578125 -0.785156 6.078125 -0.421875 C 5.578125 -0.0664062 4.921875 0.109375 4.109375 0.109375 Z M 4.109375 0.109375 "/></g></g></g><g fill="#000000" fill-opacity="1"><g transform="translate(93.005707, 37.070261)"><g><path d="M 7.21875 0 L 5.65625 0 L 5.09375 -1.734375 L 2.203125 -1.734375 L 1.640625 0 L 0.109375 0 L 2.71875 -7.53125 L 4.625 -7.53125 Z M 3.578125 -5.953125 L 2.609375 -2.984375 L 4.6875 -2.984375 L 3.703125 -5.953125 Z M 3.578125 -5.953125 "/></g></g></g><g fill="#000000" fill-opacity="1"><g transform="translate(93.62614, 50.306161)"><g><path d="M 2.46875 -7.53125 L 2.46875 -1.25 L 5.84375 -1.25 L 5.84375 0 L 0.984375 0 L 0.984375 -7.53125 Z M 2.46875 -7.53125 "/></g></g></g><g fill="#000000" fill-opacity="1"><g transform="translate(93.62614, 63.542061)"><g><path d="M 2.46875 -7.53125 L 2.46875 -1.25 L 5.84375 -1.25 L 5.84375 0 L 0.984375 0 L 0.984375 -7.53125 Z M 2.46875 -7.53125 "/></g></g></g><g fill="#000000" fill-opacity="1"><g transform="translate(94.952163, 76.777961)"><g><path d="M 2.46875 0 L 0.984375 0 L 0.984375 -7.53125 L 2.46875 -7.53125 Z M 2.46875 0 "/></g></g></g><g fill="#000000" fill-opacity="1"><g transform="translate(93.005707, 90.013861)"><g><path d="M 2.421875 0 L 0.984375 0 L 0.984375 -7.53125 L 2.6875 -7.53125 L 5.703125 -2.671875 L 5.84375 -2.703125 L 5.84375 -7.53125 L 7.265625 -7.53125 L 7.265625 0 L 5.75 0 L 2.546875 -5.1875 L 2.421875 -5.15625 Z M 2.421875 0 "/></g></g></g><g fill="#000000" fill-opacity="1"><g transform="translate(93.005707, 103.249761)"><g><path d="M 3.65625 0.109375 C 3.03125 0.109375 2.488281 -0.03125 2.03125 -0.3125 C 1.570312 -0.601562 1.21875 -1.035156 0.96875 -1.609375 C 0.71875 -2.191406 0.59375 -2.910156 0.59375 -3.765625 C 0.59375 -4.617188 0.738281 -5.332031 1.03125 -5.90625 C 1.332031 -6.488281 1.75 -6.921875 2.28125 -7.203125 C 2.8125 -7.492188 3.425781 -7.640625 4.125 -7.640625 C 4.851562 -7.640625 5.46875 -7.503906 5.96875 -7.234375 C 6.476562 -6.960938 6.835938 -6.566406 7.046875 -6.046875 L 5.953125 -5.375 L 5.828125 -5.390625 C 5.671875 -5.722656 5.453125 -5.96875 5.171875 -6.125 C 4.898438 -6.28125 4.550781 -6.359375 4.125 -6.359375 C 3.476562 -6.359375 2.984375 -6.148438 2.640625 -5.734375 C 2.296875 -5.328125 2.125 -4.671875 2.125 -3.765625 C 2.125 -2.859375 2.285156 -2.195312 2.609375 -1.78125 C 2.929688 -1.363281 3.40625 -1.15625 4.03125 -1.15625 C 4.570312 -1.15625 4.972656 -1.273438 5.234375 -1.515625 C 5.492188 -1.765625 5.625 -2.132812 5.625 -2.625 L 5.625 -2.953125 L 3.84375 -2.953125 L 3.84375 -4.15625 L 7.09375 -4.15625 L 7.09375 0 L 5.671875 0 L 5.671875 -1.015625 L 5.5625 -1.03125 C 5.40625 -0.664062 5.171875 -0.382812 4.859375 -0.1875 C 4.546875 0.0078125 4.144531 0.109375 3.65625 0.109375 Z M 3.65625 0.109375 "/></g></g></g></svg>